<svg width="35" height="34" viewBox="0 0 35 34" fill="none" xmlns="http://www.w3.org/2000/svg">
<path d="M23.5086 5.27079C24.8848 5.27577 26.3527 5.24514 27.7167 5.27664C27.7088 5.84694 27.6763 6.76342 27.7213 7.31095L27.7592 7.406C28.4461 7.41848 29.1333 7.41789 29.8202 7.40416C29.8213 7.98267 29.8115 8.61209 29.8267 9.18725C29.8332 9.25136 29.8514 9.51126 29.8695 9.552L29.8719 9.9979C29.8384 10.5492 29.8714 11.1156 29.856 11.6649L27.7421 11.6664C27.7297 12.2541 27.7104 13.2276 27.7435 13.7974C28.0019 13.7948 29.7476 13.759 29.8346 13.8101C29.8015 14.4405 29.8218 15.2467 29.821 15.8913L28.5198 15.8858C28.3369 15.8853 27.906 15.8797 27.7389 15.9063L27.7213 15.9157C27.6996 16.3699 27.6855 17.5904 27.7378 18.0082L25.953 18.0065C25.8501 18.0125 25.6549 18.0065 25.5741 18.0488L25.5534 18.1321C25.5405 18.7985 25.5382 19.465 25.5465 20.1314C24.9342 20.1093 24.1007 20.1028 23.4905 20.1426L23.467 20.2209C23.4434 20.9016 23.4535 21.6304 23.4563 22.3144C22.9353 22.2702 22.0435 22.2628 21.5217 22.2926L21.3216 22.3083C21.3077 23.0059 21.3068 23.7037 21.3186 24.4013C20.6615 24.3994 19.9859 24.3894 19.3303 24.4052C19.1638 24.4482 19.193 24.4749 19.1826 24.6501C19.1764 25.2765 19.1842 25.903 19.2059 26.5291C18.747 26.5056 18.2833 26.5186 17.8234 26.5117C17.5714 26.5267 17.319 26.536 17.0666 26.5396V28.6692C16.7778 28.6366 16.429 28.6397 16.1364 28.6429C15.0513 28.6547 13.9489 28.6144 12.8658 28.6653C12.9142 28.2806 12.8899 27.3509 12.889 26.9143C12.8757 26.8189 12.8729 26.6379 12.8682 26.5357C12.6595 26.5311 12.451 26.5232 12.2426 26.5119C11.7388 26.51 11.235 26.5178 10.7315 26.5353C10.7551 25.9475 10.7487 25.3444 10.7492 24.7551C10.7358 24.6667 10.7447 24.5819 10.7265 24.4739C10.6663 24.3998 10.6821 24.4221 10.5622 24.404C10.1313 24.3753 9.08353 24.395 8.63804 24.4168C8.63479 23.7451 8.65551 23.0177 8.63024 22.3531C8.60366 22.306 8.60456 22.3192 8.53882 22.2939C7.98828 22.2508 7.03068 22.2842 6.47903 22.3091C6.52522 21.9795 6.49797 20.8525 6.49699 20.4727C6.48204 20.3839 6.47903 20.2385 6.47424 20.1444C6.34132 20.1413 6.22531 20.1307 6.09367 20.1186C5.52599 20.122 4.95836 20.1292 4.39078 20.1403C4.407 19.4364 4.40581 18.7322 4.3872 18.0284C4.25312 18.0255 4.11509 18.0147 3.98096 18.0061C4.08882 17.9944 4.24958 17.9989 4.36201 17.9986C4.34462 17.3121 4.34051 16.6253 4.34969 15.9387C4.34094 15.2662 4.37455 14.4769 4.34655 13.8284C4.28644 13.7986 4.10984 13.8013 4.03231 13.7987C4.11807 13.7869 4.28939 13.7838 4.3819 13.7792C4.4004 13.0712 4.40161 12.3628 4.38561 11.6548C4.91526 11.6614 5.44494 11.6627 5.97462 11.659C6.0941 11.6395 6.19351 11.6602 6.31112 11.653C6.47781 11.6427 6.46587 11.5912 6.4906 11.4638C6.51492 10.8602 6.49566 10.1607 6.49596 9.54962C7.40621 9.56795 8.31668 9.5738 9.22707 9.56711C9.70385 9.56568 10.2482 9.5487 10.7175 9.56416C10.6752 9.88931 10.6723 11.3028 10.7034 11.6103L10.7295 11.6371C11.1826 11.6896 12.3585 11.6609 12.8631 11.6571C12.8573 12.2911 12.8248 13.1566 12.8652 13.7754L12.942 13.795C13.2482 13.8089 13.562 13.8104 13.8688 13.8083C14.9296 13.8009 15.9974 13.8288 17.0575 13.7993L17.0791 13.7886C17.1041 13.6335 17.0943 13.1968 17.0938 13.0178L17.0922 11.6427C17.1712 11.6288 17.4798 11.6426 17.5772 11.64C18.0682 11.6272 18.7478 11.6904 19.2295 11.6251C19.2487 10.8968 19.2511 10.276 19.2306 9.54986C19.9311 9.57527 20.6322 9.57565 21.3327 9.55102C21.34 9.44338 21.3526 9.34573 21.3665 9.23874C21.3745 8.63143 21.3676 8.00751 21.366 7.39939C21.8639 7.42637 22.9382 7.43574 23.4086 7.39787C23.5135 7.34971 23.4969 7.16292 23.5074 7.04924C23.5145 6.45149 23.5068 5.8663 23.5086 5.27079Z" fill="#4DAD4F"/>
<path d="M6.44534 15.9247C6.41925 16.2162 6.42004 17.7867 6.44778 18.0354C7.00276 18.0457 8.12409 18.0834 8.63758 18.0261C8.57644 18.5929 8.61962 19.5729 8.61035 20.1765L10.7288 20.1659C10.7172 20.8628 10.7473 21.6401 10.7181 22.3189C11.4319 22.3048 12.1572 22.3239 12.865 22.3063L12.8358 24.4005C13.5153 24.3785 14.2432 24.4015 14.9291 24.4016C15.6517 24.4016 16.3924 24.3853 17.1116 24.3978C17.0804 23.7311 17.0913 22.9844 17.0927 22.3117C17.7453 22.3114 18.5999 22.2859 19.2361 22.3173C19.2262 21.6092 19.2385 20.8986 19.2281 20.1935C19.9246 20.1868 20.6212 20.1849 21.3177 20.1877C21.283 19.5101 21.3269 18.7375 21.3156 18.0383C21.6716 18.0703 22.2209 18.045 22.5935 18.0505C22.7778 18.0532 23.3462 18.0616 23.5061 18.0465C23.5117 18.4686 23.5098 18.8908 23.5004 19.3129C23.4965 19.4762 23.4753 19.9987 23.4905 20.1426L23.467 20.2209C23.4434 20.9016 23.4535 21.6305 23.4563 22.3144C22.9353 22.2702 22.0435 22.2628 21.5217 22.2926L21.3216 22.3084C21.3077 23.0059 21.3068 23.7037 21.3186 24.4013C20.6615 24.3994 19.9859 24.3894 19.3303 24.4052C19.1638 24.4482 19.193 24.4749 19.1826 24.6501C19.1764 25.2765 19.1842 25.903 19.2059 26.5291C18.747 26.5056 18.2833 26.5186 17.8234 26.5118C17.5714 26.5267 17.319 26.536 17.0666 26.5396V28.6692C16.7778 28.6366 16.429 28.6397 16.1364 28.6429C15.0513 28.6547 13.9489 28.6144 12.8658 28.6653C12.9142 28.2806 12.8899 27.3509 12.889 26.9143C12.8757 26.8189 12.8729 26.6379 12.8682 26.5357C12.6595 26.5312 12.451 26.5232 12.2426 26.5119C11.7388 26.5101 11.235 26.5178 10.7315 26.5353C10.7551 25.9475 10.7487 25.3444 10.7492 24.7551C10.7358 24.6667 10.7447 24.5819 10.7265 24.4739C10.6663 24.3998 10.6821 24.4221 10.5622 24.404C10.1313 24.3753 9.08353 24.395 8.63804 24.4168C8.63479 23.7451 8.65551 23.0178 8.63024 22.3532C8.60366 22.306 8.60456 22.3192 8.53882 22.2939C7.98828 22.2508 7.03068 22.2842 6.47903 22.3091C6.52522 21.9795 6.49797 20.8525 6.49699 20.4727C6.48204 20.3839 6.47903 20.2385 6.47424 20.1444C6.34132 20.1413 6.22531 20.1307 6.09367 20.1186C5.52599 20.122 4.95836 20.1292 4.39078 20.1403C4.407 19.4364 4.40581 18.7322 4.3872 18.0284C4.25312 18.0255 4.11509 18.0147 3.98096 18.0061C4.08882 17.9944 4.24958 17.9989 4.36201 17.9986C4.34462 17.3121 4.34051 16.6253 4.34969 15.9387C4.98883 15.9416 5.81476 15.9609 6.44534 15.9247Z" fill="#417A42"/>
<path d="M12.8968 26.5594C14.1424 26.546 15.39 26.5708 16.6358 26.558C16.7826 26.5564 16.9201 26.5555 17.0665 26.5397V28.6693C16.7777 28.6367 16.4289 28.6397 16.1363 28.6429C15.0512 28.6548 13.9488 28.6145 12.8657 28.6653C12.9141 28.2806 12.8898 27.3509 12.8889 26.9143C12.899 26.817 12.8958 26.6615 12.8968 26.5594Z" fill="black"/>
<path d="M21.3394 20.1771C21.7899 20.167 22.2515 20.171 22.703 20.1668C22.8806 20.1651 23.292 20.1542 23.4391 20.176L23.4671 20.2209C23.4435 20.9016 23.4537 21.6305 23.4564 22.3144C22.9354 22.2703 22.0437 22.2629 21.5219 22.2926C21.4534 22.286 21.4197 22.2789 21.3528 22.2626C21.334 22.2173 21.3453 20.4219 21.3394 20.1771Z" fill="black"/>
<path d="M6.49696 20.4727C6.50038 20.3919 6.49929 20.2483 6.527 20.1796C6.6947 20.153 6.88977 20.1624 7.06069 20.165C7.5748 20.1731 8.09018 20.166 8.60407 20.1747C8.5863 20.4067 8.59621 22.2442 8.57804 22.2755L8.53879 22.2939C7.98825 22.2508 7.03065 22.2842 6.479 22.3091C6.52519 21.9795 6.49794 20.8526 6.49696 20.4727Z" fill="black"/>
<path d="M10.7492 24.7551C10.754 24.6431 10.7571 24.531 10.7583 24.4188C11.4846 24.449 12.1087 24.4444 12.8366 24.4265C12.8548 25.1206 12.8433 25.8236 12.863 26.507C12.6833 26.5045 12.4137 26.4932 12.2425 26.512C11.7387 26.5101 11.235 26.5179 10.7314 26.5353C10.755 25.9476 10.7487 25.3444 10.7492 24.7551Z" fill="black"/>
<path d="M17.1189 24.421C17.488 24.4296 17.8572 24.4395 18.2264 24.4404C18.5274 24.4411 18.8447 24.4123 19.1432 24.432C19.1835 24.48 19.1782 24.5803 19.1826 24.65C19.1763 25.2765 19.1841 25.903 19.2059 26.529C18.7469 26.5056 18.2832 26.5186 17.8234 26.5117C17.6143 26.4891 17.2937 26.5058 17.083 26.5142C17.1036 25.9332 17.0531 24.9435 17.1189 24.421Z" fill="black"/>
<path d="M19.2378 22.3172C19.9325 22.3223 20.6272 22.3193 21.3218 22.3083C21.308 23.0059 21.307 23.7037 21.3189 24.4013C20.6617 24.3994 19.9861 24.3894 19.3305 24.4052C19.2767 24.3953 19.2793 24.3956 19.233 24.3656C19.1962 23.8762 19.2353 22.8425 19.2378 22.3172Z" fill="black"/>
<path d="M8.63037 22.3532C8.6424 22.3423 8.65442 22.3315 8.66645 22.3206C9.2486 22.3115 10.1735 22.3424 10.7261 22.3204C10.6834 22.7334 10.7114 23.2238 10.7074 23.6424C10.7059 23.8014 10.7395 24.2599 10.7093 24.3774L10.5623 24.4041C10.1314 24.3754 9.08367 24.3951 8.63817 24.4169C8.63492 23.7451 8.65564 23.0178 8.63037 22.3532Z" fill="black"/>
<path d="M4.38721 18.0284C5.06592 18.0372 5.74469 18.041 6.42345 18.0398C6.45203 18.7101 6.44434 19.4376 6.44794 20.1134C6.34669 20.1136 6.19013 20.1091 6.09367 20.1186C5.52599 20.122 4.95836 20.1293 4.39078 20.1404C4.40701 19.4365 4.40582 18.7323 4.38721 18.0284Z" fill="black"/>
<path d="M23.5087 5.27079C24.8849 5.27577 26.3528 5.24514 27.7167 5.27664C27.7089 5.84694 27.6764 6.76342 27.7213 7.31095L27.7593 7.406C28.4462 7.41848 29.1334 7.41789 29.8203 7.40416C29.8214 7.98267 29.8116 8.61209 29.8268 9.18725C29.8333 9.25136 29.8515 9.51126 29.8696 9.552L29.872 9.9979C29.8384 10.5492 29.8715 11.1156 29.8561 11.6649L27.7422 11.6664C27.7373 11.0191 27.7148 10.1859 27.749 9.54821C27.1766 9.59794 26.4732 9.57982 25.8897 9.57985C25.0868 9.58318 24.2839 9.58104 23.4811 9.57345C23.4904 10.2703 23.4913 10.9673 23.4841 11.6642C22.9397 11.6356 21.9098 11.6331 21.3491 11.6395C21.3517 12.2263 21.3232 13.2441 21.3613 13.8022C20.6877 13.8031 19.8874 13.8213 19.2256 13.7892C19.2283 14.4841 19.2185 15.2173 19.234 15.9091C18.9075 15.8648 17.2015 15.9427 17.1023 15.839C17.0869 15.7448 17.0771 15.6727 17.0693 15.5776C17.0672 15.0267 17.088 14.3354 17.0576 13.7993L17.0792 13.7886C17.1042 13.6335 17.0944 13.1968 17.0939 13.0178L17.0923 11.6427C17.1713 11.6288 17.4799 11.6426 17.5773 11.64C18.0683 11.6272 18.7479 11.6904 19.2296 11.6251C19.2488 10.8968 19.2512 10.276 19.2307 9.54986C19.9312 9.57527 20.6323 9.57565 21.3328 9.55103C21.3401 9.44338 21.3527 9.34573 21.3666 9.23874C21.3746 8.63143 21.3677 8.00751 21.3661 7.39939C21.864 7.42637 22.9383 7.43574 23.4087 7.39787C23.5136 7.34971 23.497 7.16292 23.5075 7.04924C23.5146 6.45149 23.5069 5.8663 23.5087 5.27079Z" fill="#ADCB6A"/>
<path d="M23.5085 5.27079C24.8848 5.27577 26.3527 5.24514 27.7166 5.27664C27.7088 5.84694 27.6762 6.76342 27.7212 7.31095L27.6922 7.36009C27.6492 7.37292 23.8106 7.39462 23.5361 7.37008C23.5018 7.29359 23.5088 7.14052 23.5073 7.04924C23.5144 6.45149 23.5068 5.8663 23.5085 5.27079Z" fill="black"/>
<path d="M17.0922 11.6427C17.2823 11.6774 17.7153 11.6689 17.9202 11.6684L19.2257 11.6621C19.1976 12.3671 19.1918 13.0727 19.2084 13.778C18.4617 13.7609 17.7982 13.7937 17.0791 13.7886C17.1041 13.6335 17.0943 13.1968 17.0938 13.0177L17.0922 11.6427Z" fill="black"/>
<path d="M21.366 7.39947C21.8638 7.42644 22.9381 7.43582 23.4086 7.39795L23.4611 7.43346C23.5019 7.93584 23.4461 8.95181 23.4618 9.52437C22.7465 9.50711 22.0989 9.51427 21.3865 9.51559C21.3542 9.42786 21.3643 9.3333 21.3664 9.23882C21.3745 8.63151 21.3676 8.00759 21.366 7.39947Z" fill="black"/>
<path d="M27.7592 7.40602C28.4461 7.4185 29.1333 7.41791 29.8202 7.40417C29.8213 7.98269 29.8115 8.61211 29.8267 9.18727C29.8251 9.26904 29.8351 9.46231 29.7929 9.51415C29.0937 9.51873 28.4456 9.50825 27.7386 9.52488C27.7416 9.27793 27.7269 7.47381 27.7592 7.40602Z" fill="black"/>
<path d="M19.2305 9.54993C19.931 9.57533 20.6322 9.57571 21.3327 9.55109C21.2862 10.132 21.3116 11.0185 21.3219 11.6116L19.8921 11.6065C19.7594 11.6072 19.349 11.6049 19.2295 11.6252C19.2487 10.8969 19.2511 10.2761 19.2305 9.54993Z" fill="black"/>
<path d="M6.4959 9.54968C7.40615 9.56802 8.31662 9.57387 9.22701 9.56718C9.70379 9.56574 10.2481 9.54876 10.7174 9.56423C10.6752 9.88938 10.6722 11.3029 10.7033 11.6103L10.7295 11.6372C11.1825 11.6896 12.3585 11.661 12.863 11.6572C12.8573 12.2912 12.8248 13.1567 12.8651 13.7755L12.942 13.7951L12.8896 13.8309C12.8586 14.1836 12.8804 14.6712 12.874 15.0348C12.8708 15.2147 12.8614 15.706 12.8785 15.8674C12.2168 15.9114 11.407 15.8957 10.7285 15.91C10.7167 15.1975 10.7171 14.4848 10.7298 13.7723C10.1426 13.8125 9.54067 13.803 8.95124 13.803L6.44436 13.7988C6.0999 13.735 4.78361 13.7755 4.38184 13.7792C4.40034 13.0713 4.40155 12.3629 4.38555 11.6549C4.9152 11.6614 5.44488 11.6628 5.97456 11.6591C6.09404 11.6395 6.19345 11.6603 6.31106 11.6531C6.47776 11.6428 6.46581 11.5913 6.49054 11.4639C6.51486 10.8602 6.49561 10.1607 6.4959 9.54968Z" fill="#ADCB6A"/>
<path d="M6.49609 9.54968C7.40634 9.56802 8.3168 9.57387 9.22719 9.56718C9.70397 9.56574 10.2483 9.54876 10.7176 9.56423C10.6754 9.88938 10.6724 11.3029 10.7035 11.6103C10.2661 11.6097 6.59105 11.6435 6.50714 11.5828L6.49072 11.4639C6.51505 10.8602 6.49579 10.1607 6.49609 9.54968Z" fill="black"/>
<path d="M10.7295 11.6372C11.1825 11.6897 12.3585 11.661 12.863 11.6572C12.8573 12.2912 12.8248 13.1567 12.8651 13.7755C12.6735 13.7835 12.3191 13.7571 12.1096 13.754C11.6488 13.7486 11.1879 13.753 10.7274 13.7672C10.7306 13.0819 10.7038 12.3102 10.7295 11.6372Z" fill="black"/>
<path d="M4.38555 11.6548C4.9152 11.6613 5.44488 11.6627 5.97456 11.659C6.1318 11.6616 6.29603 11.6669 6.45267 11.6628C6.43425 12.3746 6.43146 13.0868 6.44436 13.7987C6.0999 13.735 4.78361 13.7754 4.38184 13.7791C4.40034 13.0712 4.40155 12.3628 4.38555 11.6548Z" fill="black"/>
<path d="M27.7436 13.7975C28.002 13.7949 29.7478 13.759 29.8347 13.8102C29.8017 14.4406 29.822 15.2467 29.8212 15.8914L28.5199 15.8858C28.3371 15.8854 27.9062 15.8797 27.739 15.9063L27.7214 15.9158C27.6998 16.3699 27.6857 17.5904 27.738 18.0082L25.9532 18.0065C25.8502 18.0126 25.6551 18.0066 25.5743 18.0489L25.5535 18.1322C25.5406 18.7985 25.5383 19.465 25.5467 20.1314C24.9344 20.1094 24.1008 20.1029 23.4907 20.1426C23.4755 19.9988 23.4967 19.4763 23.5006 19.3129C23.51 18.8909 23.5119 18.4687 23.5063 18.0466C23.4742 17.8523 23.4825 17.4246 23.4839 17.2157C23.487 16.7698 23.4808 16.3764 23.4512 15.932C24.1194 15.9039 24.9112 15.9196 25.5866 15.9214C25.5669 15.7366 25.5897 15.3208 25.593 15.1078C25.5968 14.6725 25.5974 14.2372 25.5948 13.8019C26.3111 13.8064 27.0274 13.8049 27.7436 13.7975Z" fill="#417A42"/>
<path d="M25.5982 15.9376C26.3061 15.9408 27.0139 15.9335 27.7216 15.9158C27.6999 16.3699 27.6859 17.5904 27.7381 18.0082L25.9534 18.0065C25.8448 17.9948 25.6912 17.9986 25.5786 17.998C25.5948 17.3113 25.6014 16.6244 25.5982 15.9376Z" fill="black"/>
<path d="M27.7437 13.7975C28.0021 13.7949 29.7479 13.759 29.8348 13.8102C29.8018 14.4406 29.8221 15.2467 29.8213 15.8914L28.52 15.8858C28.3372 15.8854 27.9062 15.8797 27.7391 15.9063C27.7204 15.2439 27.7391 14.4676 27.7437 13.7975Z" fill="black"/>
<path d="M23.5064 18.0465C23.769 18.0368 25.4195 17.993 25.5353 18.0683L25.5536 18.1322C25.5407 18.7985 25.5384 19.465 25.5467 20.1314C24.9345 20.1094 24.1009 20.1029 23.4907 20.1426C23.4756 19.9987 23.4968 19.4762 23.5007 19.3129C23.5101 18.8908 23.512 18.4687 23.5064 18.0465Z" fill="black"/>
<path d="M12.9424 13.795C13.2485 13.8089 13.5623 13.8105 13.8691 13.8083C14.93 13.8009 15.9978 13.8288 17.0579 13.7994C17.0883 14.3355 17.0674 15.0268 17.0696 15.5776L17.0679 15.8865C17.1216 16.5068 17.0715 17.3803 17.0902 18.0324C16.6823 18.0017 16.0186 18.0206 15.5975 18.0208L12.8485 18.0226C12.8451 17.6796 12.8244 16.1311 12.8844 15.8845L12.8789 15.8673C12.8618 15.706 12.8712 15.2147 12.8744 15.0348C12.8808 14.6712 12.859 14.1836 12.89 13.8309L12.9424 13.795Z" fill="#ADCB6A"/>
<path d="M12.9421 13.795C13.2483 13.8089 13.5621 13.8105 13.8689 13.8083C14.9297 13.8009 15.9975 13.8288 17.0576 13.7994C17.088 14.3355 17.0671 15.0268 17.0693 15.5776L17.0676 15.8865C15.7469 15.9083 14.2003 15.911 12.8841 15.8845L12.8787 15.8673C12.8615 15.706 12.8709 15.2147 12.8741 15.0348C12.8805 14.6712 12.8587 14.1836 12.8897 13.8309L12.9421 13.795Z" fill="black"/>
<path d="M29.8695 9.552C30.5694 9.56763 31.272 9.54604 31.9563 9.56251C31.9284 10.2682 31.9395 11.0391 31.9408 11.749C31.9422 12.4173 31.9303 13.1397 31.9522 13.8045C31.3907 13.7357 30.4277 13.7404 29.8554 13.783L29.8345 13.8101C29.7476 13.759 28.0019 13.7948 27.7435 13.7974C27.7104 13.2276 27.7296 12.2541 27.7421 11.6664L29.8559 11.6649C29.8714 11.1156 29.8383 10.5492 29.8719 9.9979L29.8695 9.552Z" fill="black"/>
<path d="M29.8559 11.6649C29.8714 11.1156 29.8383 10.5492 29.8719 9.99792C29.9077 10.8756 29.8614 11.8147 29.8698 12.6972C29.8727 13.0078 29.8286 13.4963 29.8554 13.783L29.8345 13.8101C29.7476 13.759 28.0019 13.7948 27.7435 13.7975C27.7104 13.2276 27.7296 12.2541 27.7421 11.6664L29.8559 11.6649Z" fill="#417A42"/>
<path d="M2.22629 13.7819C2.82817 13.7962 3.43022 13.8019 4.03228 13.7988C4.1098 13.8014 4.28641 13.7987 4.34651 13.8285C4.37452 14.477 4.34091 15.2662 4.34966 15.9387C4.34047 16.6254 4.34459 17.3122 4.36198 17.9987C4.24954 17.9989 4.08878 17.9945 3.98092 18.0062L2.21973 18.008C2.2492 16.5995 2.25138 15.1905 2.22629 13.7819Z" fill="black"/>
</svg>
