<svg width="42" height="42" viewBox="0 0 42 42" fill="none" xmlns="http://www.w3.org/2000/svg">
<path d="M15.463 6.30123C15.9533 6.2774 16.514 6.28878 17.0084 6.29027L19.4466 6.2962L26.4001 6.29563C26.3943 6.88607 26.388 7.52909 26.4064 8.11708L26.4189 8.1295C27.0137 8.139 27.6203 8.13702 28.2131 8.15823C28.2135 8.73345 28.1985 9.40234 28.2198 9.97282C29.3988 9.91174 30.7013 9.98732 31.8836 9.94987C31.884 10.4241 31.8691 11.3169 31.9016 11.7677L31.9193 11.7874C32.4626 11.7908 33.1894 11.7703 33.7131 11.8066C33.7166 12.9714 33.7409 14.247 33.7045 15.4055C33.2007 15.3806 32.3838 15.3728 31.903 15.4312C31.867 16.1132 31.8797 16.8397 31.8813 17.5251L31.8836 20.4607L31.8868 31.9216C31.8922 32.3159 31.9083 33.3378 31.8681 33.7094C31.2481 33.7045 30.7085 33.7076 30.091 33.7352L30.0773 33.7403L30.0753 33.7513C30.0544 34.3592 30.0751 34.9575 30.0569 35.5508C29.5639 35.5122 28.7756 35.5478 28.2402 35.5394L20.5375 35.5355L13.6069 35.5384C13.0419 35.5216 12.4015 35.5471 11.812 35.5355C11.7809 34.934 11.8136 34.3394 11.7882 33.7444C11.4913 33.6908 10.3356 33.7008 9.98129 33.7055C9.9491 33.3827 9.96036 32.5534 9.97328 32.2134C9.95325 30.8262 9.96937 29.4112 9.96958 28.022L9.96935 20.485L9.96995 17.4326C9.96982 16.779 9.98098 16.0757 9.95045 15.4265C9.65357 15.339 8.57466 15.4184 8.16601 15.4088C8.14283 15.0073 8.15407 14.5035 8.15422 14.0956C8.15659 13.3337 8.15499 12.5718 8.14941 11.81C8.72862 11.7678 9.38768 11.8225 9.93106 11.7792L9.94684 11.7676C9.97256 11.1916 9.9566 10.5538 9.96498 9.97016C11.159 9.92071 12.4329 9.99165 13.6272 9.96268C13.6505 9.42209 13.6278 8.7187 13.6275 8.16299C14.1764 8.11579 14.8722 8.14587 15.4465 8.12789L15.463 6.30123Z" fill="#999898"/>
<path d="M28.2361 17.2625C28.764 17.2578 29.5797 17.2278 30.0791 17.2586L30.076 27.6659C30.076 29.0643 30.0967 30.5187 30.0756 31.913C30.0748 32.4629 30.0517 33.1995 30.077 33.7403L30.075 33.7513C30.0542 34.3592 30.0748 34.9575 30.0566 35.5509C29.5636 35.5122 28.7753 35.5478 28.2399 35.5394L20.5372 35.5355L13.6066 35.5384C13.0416 35.5216 12.4012 35.5472 11.8117 35.5355C11.7806 34.934 11.8133 34.3394 11.7879 33.7444L11.7866 33.6986C11.82 33.2442 11.7928 32.4028 11.7922 31.9196L11.7904 17.2533L13.6068 17.2623C13.5874 18.7284 13.6036 20.2319 13.6036 21.7004L13.6032 30.0837L17.2452 30.0802L17.2422 31.2571C17.2421 31.4055 17.2367 31.7729 17.2583 31.9046C17.2734 31.7945 17.267 31.5181 17.2666 31.3951L17.2634 30.484L17.2616 27.4321C17.2615 24.0571 17.2918 20.6291 17.2509 17.2568L19.1043 17.2541L19.1033 30.0837L21.526 30.0851C21.8948 30.0851 22.4046 30.1006 22.764 30.0825L22.7603 17.2599C23.3533 17.2586 24.0022 17.2704 24.5919 17.2535C24.5747 18.6106 24.5839 19.9874 24.5839 21.3458V28.1671L24.5809 30.7396C24.5802 30.894 24.568 31.7964 24.5913 31.9065L28.241 31.9057L28.243 30.0894L28.2416 21.8088C28.2416 20.3026 28.2561 18.767 28.2361 17.2625Z" fill="#FEFEFE"/>
<path d="M13.5931 33.7516L23.061 33.7532L26.5006 33.753C27.0709 33.753 27.6947 33.7653 28.2597 33.7518C28.2133 34.2338 28.2529 35.0229 28.2402 35.5394L20.5375 35.5356L13.6069 35.5384C13.5782 34.9804 13.604 34.3251 13.5931 33.7516Z" fill="black"/>
<path d="M30.0756 31.913C30.0748 32.4628 30.0517 33.1994 30.077 33.7403L30.075 33.7513C30.0542 34.3592 30.0748 34.9574 30.0566 35.5508C29.5636 35.5122 28.7753 35.5477 28.2399 35.5394C28.2526 35.0228 28.213 34.2337 28.2594 33.7517C27.6944 33.7652 27.0706 33.7529 26.5003 33.7529L23.0607 33.7531L13.5928 33.7515C13.6037 34.325 13.5779 34.9803 13.6066 35.5383C13.0416 35.5216 12.4012 35.5471 11.8117 35.5355C11.7806 34.9339 11.8133 34.3394 11.7879 33.7444L11.7866 33.6986C11.82 33.2442 11.7928 32.4027 11.7922 31.9195C12.3816 31.905 12.9983 31.9095 13.5888 31.9105C13.5935 32.5174 13.593 33.1242 13.587 33.7309L28.2575 33.7315C28.2502 33.125 28.25 32.5186 28.2569 31.9124L30.0756 31.913Z" fill="#E3E3E3"/>
<path d="M28.2596 33.7518L30.0752 33.7513C30.0544 34.3592 30.075 34.9575 30.0568 35.5509C29.5638 35.5122 28.7755 35.5478 28.2401 35.5394C28.2528 35.0229 28.2132 34.2338 28.2596 33.7518Z" fill="#4A4A4A"/>
<path d="M11.7881 33.7444C12.3135 33.7744 13.0545 33.7521 13.593 33.7515C13.6039 34.3251 13.5781 34.9804 13.6068 35.5384C13.0418 35.5216 12.4014 35.5472 11.8119 35.5355C11.7808 34.934 11.8135 34.3394 11.7881 33.7444Z" fill="#4A4A4A"/>
<path d="M19.1035 30.0837L21.5261 30.0852C21.8949 30.0852 22.4047 30.1007 22.7642 30.0825L22.7658 31.8994C21.623 31.9386 20.267 31.9051 19.1046 31.9051L19.1035 30.0837Z" fill="#717171"/>
<path d="M13.603 30.0837L17.2451 30.0802L17.2421 31.2571C17.2419 31.4055 17.2366 31.7728 17.2581 31.9046L13.6043 31.9065L13.603 30.0837Z" fill="#717171"/>
<path d="M15.463 6.30123C15.9533 6.2774 16.514 6.28878 17.0084 6.29027L19.4466 6.2962L26.4001 6.29563C26.3943 6.88607 26.388 7.52909 26.4064 8.11708L26.4189 8.1295C27.0137 8.139 27.6203 8.13702 28.2131 8.15823C28.2135 8.73345 28.1985 9.40234 28.2198 9.97282C29.3988 9.91174 30.7013 9.98732 31.8836 9.94987C31.884 10.4241 31.8691 11.3169 31.9016 11.7677L31.9193 11.7874C32.4626 11.7908 33.1894 11.7703 33.7131 11.8066C33.7166 12.9714 33.7409 14.247 33.7045 15.4055C33.2007 15.3806 32.3838 15.3728 31.903 15.4312C31.3593 15.4686 30.646 15.4395 30.09 15.444C30.091 16.0012 30.1108 16.6721 30.0914 17.2195C30.0551 17.1678 30.0696 15.6218 30.0698 15.4257C29.6025 15.4544 28.9415 15.4318 28.454 15.4317L25.3876 15.4316L15.826 15.4314L13.0634 15.4324C12.7163 15.433 12.0982 15.4111 11.7829 15.434C11.63 15.4528 11.1453 15.447 10.9803 15.4451C10.7045 15.4419 10.2073 15.4624 9.95045 15.4265C9.65357 15.339 8.57466 15.4184 8.16601 15.4088C8.14283 15.0073 8.15407 14.5035 8.15422 14.0956C8.15659 13.3337 8.15499 12.5718 8.14941 11.81C8.72862 11.7678 9.38768 11.8225 9.93106 11.7792L9.94684 11.7676C9.97256 11.1916 9.9566 10.5538 9.96498 9.97016C11.159 9.92071 12.4329 9.99166 13.6272 9.96268C13.6505 9.42209 13.6278 8.7187 13.6275 8.16299C14.1764 8.11579 14.8722 8.14587 15.4465 8.12789L15.463 6.30123Z" fill="#999898"/>
<path d="M15.4629 6.30123C15.9533 6.2774 16.514 6.28878 17.0083 6.29027L19.4466 6.2962L26.4 6.29563C26.3943 6.88607 26.3879 7.52909 26.4063 8.11708L26.4188 8.1295C27.0136 8.139 27.6202 8.13702 28.213 8.15823C28.2134 8.73345 28.1985 9.40234 28.2197 9.97282C29.3987 9.91174 30.7013 9.98732 31.8835 9.94987C31.8839 10.4241 31.869 11.3169 31.9015 11.7677L9.94678 11.7676C9.9725 11.1916 9.95654 10.5538 9.96492 9.97016C11.1589 9.92071 12.4328 9.99166 13.6272 9.96268C13.6504 9.42209 13.6278 8.7187 13.6274 8.16299C14.1764 8.11579 14.8722 8.14587 15.4464 8.12789L15.4629 6.30123Z" fill="black"/>
<path d="M26.4061 8.11714L26.4185 8.12957C26.4379 8.71662 26.4277 9.36041 26.4226 9.95032C25.9602 9.93371 25.4553 9.94274 24.9899 9.9428L22.6086 9.94288L15.4434 9.94472C15.4344 9.34451 15.441 8.72542 15.4389 8.12378C15.8816 8.10586 16.3814 8.116 16.8285 8.11616L19.1361 8.11596L26.4061 8.11714Z" fill="#E3E3E3"/>
<path d="M17.2353 8.14097L24.6009 8.14026C24.5878 8.79392 24.5704 9.25791 24.6156 9.92166L17.229 9.92142C17.2752 9.32891 17.2773 8.73379 17.2353 8.14097Z" fill="#FEFEFE"/>
<path d="M31.9192 11.7874C32.4625 11.7908 33.1893 11.7703 33.713 11.8067C33.7164 12.9714 33.7408 14.247 33.7044 15.4055C33.2005 15.3806 32.3836 15.3729 31.9028 15.4312C31.9296 15.19 31.91 14.4766 31.9102 14.2107C31.9182 13.403 31.921 12.5952 31.9192 11.7874Z" fill="black"/>
<path d="M9.93106 11.7792C9.9167 12.5413 9.92698 13.3348 9.93458 14.0977C9.93795 14.4364 9.91243 15.1126 9.95045 15.4265C9.65357 15.339 8.57466 15.4184 8.16601 15.4088C8.14283 15.0073 8.15407 14.5035 8.15422 14.0955C8.15659 13.3337 8.15499 12.5718 8.14941 11.81C8.72862 11.7678 9.38768 11.8225 9.93106 11.7792Z" fill="black"/>
<path d="M11.7706 11.7893L30.1023 11.7892L31.9034 11.7913L31.8975 13.6032L9.94768 13.6039C9.93203 13.0509 9.93599 12.3409 9.949 11.79L11.7706 11.7893Z" fill="#FEFEFE"/>
<path d="M9.949 11.79L11.7706 11.7893C11.7949 11.9497 11.7818 12.4744 11.7757 12.659C11.7667 12.9322 11.7821 13.3173 11.763 13.5793C12.6111 13.5939 13.4822 13.5832 14.3329 13.5832L18.9763 13.5831L30.1035 13.5818C30.0769 13.0744 30.0592 12.3037 30.1023 11.7892L31.9034 11.7913L31.8975 13.6032L9.94768 13.6039C9.93203 13.0509 9.93599 12.3409 9.949 11.79Z" fill="#E3E3E3"/>
<path d="M9.9502 15.4265C10.207 15.4624 10.7043 15.4419 10.98 15.4451C11.145 15.447 11.6298 15.4528 11.7827 15.434L11.773 31.9091L11.7718 33.0689C11.7716 33.2099 11.7646 33.5787 11.7866 33.6986L11.7879 33.7444C11.4911 33.6908 10.3354 33.7009 9.98103 33.7056C9.94885 33.3827 9.96011 32.5534 9.97302 32.2134C9.95299 30.8262 9.96912 29.4112 9.96932 28.022L9.9691 20.485L9.96969 17.4326C9.96957 16.779 9.98072 16.0757 9.9502 15.4265Z" fill="black"/>
<path d="M9.99369 31.9036C10.5623 31.9369 11.2259 31.8752 11.7728 31.9091L11.7717 33.0689C11.7714 33.2099 11.7645 33.5787 11.7865 33.6986L11.7878 33.7444C11.4909 33.6908 10.3352 33.7008 9.9809 33.7055C9.94872 33.3827 9.95997 32.5534 9.97289 32.2134C9.99675 32.1132 9.99226 32.0074 9.99369 31.9036Z" fill="#4A4A4A"/>
<path d="M31.9028 15.4313C31.8669 16.1133 31.8795 16.8398 31.8812 17.5252L31.8834 20.4608L31.8867 31.9217C31.8309 31.8918 30.2993 31.9119 30.0962 31.9131C30.1101 30.9139 30.0966 29.8757 30.0966 28.8735V22.8218V19.1353C30.0968 18.5574 30.1199 17.7855 30.0913 17.2196C30.1107 16.6722 30.0909 16.0013 30.0898 15.4441C30.6458 15.4396 31.3591 15.4687 31.9028 15.4313Z" fill="black"/>
<path d="M24.6013 30.0806C25.8013 30.0955 27.051 30.0565 28.243 30.0894L28.241 31.9057L24.5913 31.9065C24.6083 31.7982 24.6032 31.4378 24.6032 31.3109L24.6013 30.0806Z" fill="#717171"/>
<path d="M30.0961 31.913C30.2992 31.9118 31.8309 31.8917 31.8866 31.9216C31.892 32.3159 31.9081 33.3378 31.8679 33.7094C31.2479 33.7045 30.7083 33.7076 30.0908 33.7352C30.1151 33.1776 30.0963 32.4773 30.0961 31.913Z" fill="#4A4A4A"/>
</svg>
